<?xml version="1.0" standalone="no"?>
<!DOCTYPE svg PUBLIC "-//W3C//DTD SVG 20010904//EN"
 "http://www.w3.org/TR/2001/REC-SVG-20010904/DTD/svg10.dtd">
<svg version="1.0" xmlns="http://www.w3.org/2000/svg"
 width="766.000000pt" height="388.000000pt" viewBox="0 0 766.000000 388.000000"
 preserveAspectRatio="xMidYMid meet">
<metadata>
Created by potrace 1.16, written by Peter Selinger 2001-2019
</metadata>
<g transform="translate(0.000000,388.000000) scale(0.100000,-0.100000)"
fill="#000000" stroke="none">
<path d="M5652 2630 c-96 -8 -202 -23 -402 -56 -110 -19 -326 -32 -548 -33
-265 -2 -327 -7 -507 -41 -129 -25 -471 -108 -635 -155 -314 -89 -402 -105
-580 -106 -104 -1 -237 20 -357 56 l-52 15 10 33 c14 48 11 57 -18 68 -40 15
-188 32 -263 30 -65 -2 -239 -38 -320 -66 -92 -32 -182 -99 -245 -182 -124
-163 -155 -194 -233 -230 -40 -18 -103 -40 -138 -49 -103 -26 -117 -71 -42
-140 66 -63 162 -105 378 -169 236 -71 377 -136 565 -261 170 -112 406 -244
562 -314 92 -41 215 -136 263 -202 28 -38 30 -47 30 -131 0 -49 5 -107 12
-129 14 -47 62 -102 102 -118 l29 -11 -37 -38 c-38 -38 -70 -118 -60 -146 5
-13 40 -15 210 -15 l204 0 10 26 c6 15 22 35 35 46 34 26 57 110 46 161 -5 21
-21 55 -35 76 -26 37 -26 39 -11 81 38 107 96 175 255 301 45 35 175 119 185
119 3 0 5 -26 5 -58 0 -114 63 -247 134 -284 60 -31 152 -12 200 41 17 19 18
33 14 138 l-6 118 163 166 c205 210 220 245 141 343 l-35 42 39 69 c22 39 39
80 40 93 0 12 2 22 4 22 2 0 64 -9 138 -20 73 -11 158 -20 189 -20 58 0 205
27 294 54 129 40 269 59 430 60 88 0 174 -3 190 -8 17 -4 77 -31 135 -58 58
-27 139 -61 180 -74 41 -13 89 -28 106 -34 17 -6 86 -10 153 -9 120 1 122 1
169 33 26 18 56 50 68 72 26 50 48 174 39 222 -14 81 -59 210 -88 257 -41 66
-175 204 -258 266 -86 63 -129 82 -280 120 -110 27 -144 31 -294 34 -93 2
-221 -1 -283 -5z m318 -80 c311 -26 454 -84 620 -253 83 -85 120 -149 144
-247 25 -103 24 -186 -3 -247 -13 -28 -30 -55 -39 -58 -35 -14 -149 -35 -192
-35 -69 0 -112 15 -287 101 -98 48 -184 84 -220 90 -101 19 -385 -9 -558 -56
-219 -59 -376 -68 -569 -34 -59 10 -70 15 -86 42 -10 17 -22 49 -26 71 -7 44
-47 130 -65 141 -7 5 -8 -7 -2 -41 24 -140 -1 -274 -73 -397 -19 -32 -34 -65
-34 -72 0 -8 19 -29 43 -46 108 -78 96 -107 -134 -327 l-149 -144 6 -111 c6
-105 5 -114 -16 -139 -72 -91 -193 49 -176 205 8 78 39 131 135 231 58 60 95
87 156 118 88 44 90 46 84 53 -3 2 -29 -2 -59 -10 -109 -28 -220 -37 -286 -25
-124 24 -158 69 -152 206 3 94 -4 96 -26 9 -19 -72 -20 -157 -2 -207 13 -37
13 -38 -20 -63 -76 -58 -371 -176 -407 -162 -8 3 -28 30 -45 61 -25 44 -41 59
-79 76 -49 22 -103 41 -103 36 0 -2 25 -20 55 -40 84 -56 98 -83 91 -186 -7
-116 -46 -260 -96 -359 -23 -46 -40 -84 -38 -86 10 -9 172 -95 179 -95 14 0
59 -78 59 -103 0 -12 -7 -33 -16 -46 -23 -32 -57 -23 -135 36 -36 27 -80 54
-99 62 -86 32 -121 53 -140 83 -19 31 -20 44 -14 194 4 88 4 177 0 196 -7 37
-7 37 -84 54 -109 24 -175 47 -356 127 -223 98 -322 151 -476 258 -159 109
-341 197 -489 234 -150 38 -308 91 -358 120 l-44 26 21 26 c11 14 20 31 20 38
0 7 47 35 104 63 110 53 134 76 222 209 79 118 221 202 398 233 105 19 286 26
334 14 12 -4 22 -12 22 -19 0 -27 -62 -95 -125 -136 -64 -43 -66 -44 -37 -47
34 -3 93 23 139 62 l30 25 39 -18 c81 -39 187 -62 314 -68 163 -7 256 6 515
73 228 59 495 124 590 145 33 7 65 16 71 20 6 5 75 18 155 29 121 17 194 21
462 20 175 0 322 -2 326 -5 15 -8 350 34 486 61 208 42 312 49 495 34z m-1890
-1330 c0 -45 -9 -53 -223 -207 -66 -48 -153 -118 -192 -157 -61 -60 -77 -82
-100 -143 -29 -78 -47 -90 -89 -58 -18 14 -19 18 -7 52 8 20 26 58 42 84 15
26 35 70 44 96 19 57 33 72 146 168 54 46 109 83 150 100 91 39 196 93 204
105 12 20 25 -1 25 -40z m-665 -848 c21 -12 75 -60 75 -66 0 -3 -56 -6 -125
-6 -70 0 -125 4 -125 9 0 21 52 70 78 74 32 4 80 -1 97 -11z"/>
</g>
</svg>
